<svg width="183" height="63" viewBox="0 0 183 63" fill="none" xmlns="http://www.w3.org/2000/svg">
<g clip-path="url(#clip0_132_1429)">
<mask id="mask0_132_1429" style="mask-type:luminance" maskUnits="userSpaceOnUse" x="0" y="0" width="183" height="63">
<path d="M183 0H0V63H183V0Z" fill="white"/>
</mask>
<g mask="url(#mask0_132_1429)">
<mask id="mask1_132_1429" style="mask-type:luminance" maskUnits="userSpaceOnUse" x="0" y="0" width="183" height="63">
<path d="M183 0H0V63H183V0Z" fill="white"/>
</mask>
<g mask="url(#mask1_132_1429)">
<path d="M180.301 17.5578C177.147 22.5843 172.234 31.3101 167.257 38.0611C160.616 47.0253 152.359 46.8346 151.714 46.8028C151.71 46.8028 151.707 46.8028 151.707 46.8028C148.947 46.8505 146.323 46.9975 143.915 47.5339C143.145 47.7048 135.362 48.8253 132.559 54.3843C131.927 55.6359 131.772 57.1776 132.389 58.322C133.484 60.3445 135.01 60.9922 136.54 61.0002C139.081 61.02 141.595 59.1843 142.22 58.5326C143.125 57.579 144.014 56.7048 144.769 55.6796C145.528 54.6545 146.173 53.6849 146.785 52.6558C147.473 51.5074 148.181 50.1207 148.73 49.1273H151.019C150.754 49.62 149.963 51.571 148.611 53.8041C147.963 54.873 147.248 55.7035 146.426 56.7882C138.808 66.8253 132.816 61.8147 132.239 61.2505C126.938 56.0849 132.737 49.9776 136.429 48.2015C137.2 47.828 137.963 47.4545 138.753 47.1564C141.923 45.9644 145.244 45.4359 148.485 45.2015C148.908 45.1737 149.335 45.1458 149.758 45.126C150.05 45.1101 150.343 45.0982 150.635 45.0902C150.639 45.0902 151.853 45.0783 152.537 45.0664C152.647 45.0624 152.742 45.0624 152.817 45.0624C152.821 45.0624 152.825 45.0624 152.829 45.0624C161.419 44.4783 167 35.4624 167 35.4624V35.4664C167.474 34.3896 166.893 33.4717 167.68 33.1061C168.55 32.7127 169.241 32.1723 169.949 29.7405C169.98 29.6333 170.008 29.5379 170.044 29.4465C170.044 29.4465 170.478 27.9843 170.886 27.3684H170.89C170.929 27.3048 171.131 27.0028 171.174 26.9392C171.316 26.7405 171.463 26.5935 171.463 26.5935C171.913 26.0849 172.498 25.6002 173.34 25.0081C175.503 23.4902 174.06 19.5803 174.949 17.4624C175.839 15.3445 177.736 14.6015 177.736 14.6015C177.736 14.6015 177.028 11.9472 176.277 10.6915C176.258 10.7114 176.23 10.7273 176.206 10.7432L176.25 10.6955C176.143 10.7472 169.273 14.2677 168.261 16.9856C167.676 18.5631 165.545 18.3644 165.545 18.3644C165.545 18.3644 172.834 9.64651 176.214 7.40942C177.159 6.78558 177.945 6.36836 178.605 6.10214L178.495 4.65578C177.53 4.65181 176.633 4.03591 176.305 3.07035C175.894 1.85048 176.542 0.52333 177.76 0.110085C178.467 -0.132299 179.214 -0.0130938 179.791 0.372337L179.795 0.37631C179.835 0.400151 181.483 1.58823 181.483 1.58823L181.092 2.38691L181.708 3.43989L180.89 4.16306L181.191 5.5975C181.183 5.60942 185.808 8.78028 180.301 17.5578Z" fill="#F6BC17"/>
</g>
<mask id="mask2_132_1429" style="mask-type:luminance" maskUnits="userSpaceOnUse" x="0" y="0" width="183" height="63">
<path d="M183 0H0V63H183V0Z" fill="white"/>
</mask>
<g mask="url(#mask2_132_1429)">
<path d="M48.3839 35.8086C48.3523 36.0112 48.3049 36.1702 48.2891 36.2218C48.3167 36.0788 48.3523 35.9437 48.3839 35.8086Z" fill="#454547"/>
</g>
<mask id="mask3_132_1429" style="mask-type:luminance" maskUnits="userSpaceOnUse" x="0" y="0" width="183" height="63">
<path d="M183 0H0V63H183V0Z" fill="white"/>
</mask>
<g mask="url(#mask3_132_1429)">
<path d="M102.801 15.6803C102.801 16.9757 101.758 18.0247 100.469 18.0247C99.1803 18.0247 98.1367 16.9757 98.1367 15.6803C98.1367 14.3849 99.1803 13.3359 100.469 13.3359C101.758 13.3399 102.801 14.3889 102.801 15.6803Z" fill="#1E1E1E"/>
</g>
<mask id="mask4_132_1429" style="mask-type:luminance" maskUnits="userSpaceOnUse" x="0" y="0" width="183" height="63">
<path d="M183 0H0V63H183V0Z" fill="white"/>
</mask>
<g mask="url(#mask4_132_1429)">
<path d="M160.929 22.3793C160.442 22.1091 159.478 22.2918 159.015 22.5978C157.533 23.5753 154.003 27.0402 151.323 37.864C149.841 39.2428 147.299 41.2415 145.137 41.0706C141.86 40.8124 145.829 34.4786 145.829 34.4786C145.829 34.4786 152.861 21.9541 149.469 21.7355C146.082 21.517 146.702 24.37 146.702 24.37C146.702 24.37 146.521 29.17 144.734 32.3885C143.489 34.6415 141.493 37.7289 141.635 39.8905C140.583 41.0786 139.152 42.2905 137.702 42.2905C134.86 42.2905 134.543 36.6759 135.71 33.2071C136.876 29.7382 143.358 21.1713 136.607 23.2932C136.607 23.2932 136.362 20.9965 131.895 23.7303C127.424 26.464 125.531 29.5912 125.531 29.5912C125.531 29.5912 119.155 38.1859 122.843 41.0826C122.171 41.913 121.068 42.6442 119.301 42.4574C115.515 42.0561 117.226 36.4852 117.408 33.8865C117.59 31.2879 121.669 21.7276 122.946 18.7276C124.223 15.7236 127.282 12.9422 124.879 11.917C122.476 10.8918 120.033 13.8958 119.376 16.423C118.72 18.9501 116.281 23.7819 116.281 23.7819C113.621 23.9289 105.427 27.0759 102.984 35.464C102.64 36.6442 102.447 37.6574 102.379 38.5236C101.055 40.1091 98.6676 42.4971 96.6833 41.8971C95.3156 41.4839 94.8492 40.1726 94.7346 38.8932C94.6081 37.4746 94.9401 36.0561 95.624 34.8084C97.3197 31.717 101.411 23.7938 99.308 22.8561C96.6833 21.6839 96.3948 23.4402 96.1023 25.2004C95.8097 26.9567 88.5247 42.4852 84.7379 42.1912C81.1803 41.917 84.0778 31.6375 85.6431 26.7978C84.2675 27.9223 82.2871 28.9832 80.959 29.6349C80.6902 30.823 80.374 32.1978 80.0736 33.4057C79.4925 35.7501 79.2 43.6614 84.1529 43.9514C89.0307 44.2375 91.3668 37.7091 91.4379 37.5104C91.3944 37.7051 90.0782 43.6574 96.1023 43.6574C98.9206 43.6574 101.134 40.9753 102.352 39.072C102.237 43.7726 106.048 43.5899 107.399 43.411C110.977 42.9342 113.677 36.521 113.807 36.2071C113.724 36.5448 111.997 43.9514 118.582 43.9952C121.452 44.015 122.756 42.6879 123.345 41.4044C123.922 41.7144 124.673 41.921 125.638 41.9965C125.638 41.9965 129.84 42.3382 132.049 37.7488C132.049 37.7488 131.832 43.7051 136.955 43.7051C139.386 43.7051 140.943 42.3342 141.908 40.8958C142.157 41.3647 142.584 41.7501 143.248 42.0203C145.679 43.0097 148.952 41.2495 150.829 39.9978C150.77 40.268 150.711 40.5422 150.655 40.8243C150.58 41.1899 149.979 44.0706 149.754 45.1276C150.046 45.1117 150.339 45.0998 150.631 45.0918C150.635 45.0918 151.849 45.0799 152.533 45.068C152.928 43.725 157.644 27.9342 160.296 25.3395C161.905 23.762 161.494 22.6932 160.929 22.3793ZM115.511 26.9329C115.341 27.3779 115.179 27.823 115.024 28.2759C113.981 31.3395 110.439 40.8521 106.771 40.6693C103.565 40.5064 108.664 31.1846 108.664 31.1846C108.664 31.1846 110.526 27.3223 113.692 25.8402C116.143 24.6918 115.807 26.17 115.511 26.9329ZM134.445 27.2706C134.354 27.4892 134.267 27.7117 134.188 27.9342C133.401 30.1236 129.369 40.8283 125.922 40.1925C122.084 39.4852 129.539 27.2309 132.844 25.4706C135.595 24.0084 134.789 26.4243 134.445 27.2706Z" fill="#1E1E1E"/>
</g>
<mask id="mask5_132_1429" style="mask-type:luminance" maskUnits="userSpaceOnUse" x="0" y="0" width="183" height="63">
<path d="M183 0H0V63H183V0Z" fill="white"/>
</mask>
<g mask="url(#mask5_132_1429)">
<path d="M40.0461 40.4478H0L1.676 29.3379C1.92503 27.677 3.34409 26.4531 5.01614 26.4531H45.5682L43.3625 37.7101C43.0502 39.2995 41.6588 40.4478 40.0461 40.4478Z" fill="#1E1E1E"/>
</g>
<mask id="mask6_132_1429" style="mask-type:luminance" maskUnits="userSpaceOnUse" x="0" y="0" width="183" height="63">
<path d="M183 0H0V63H183V0Z" fill="white"/>
</mask>
<g mask="url(#mask6_132_1429)">
<path d="M7.709 31.2441C8.0529 31.1766 8.51933 31.1289 8.99762 31.1289C9.47591 31.1289 9.82771 31.1766 10.1598 31.3395C10.5036 31.4905 10.7724 31.8004 10.7724 32.2296C10.7724 32.8137 10.3693 33.1475 9.88701 33.2945V33.3064C10.3337 33.4574 10.5906 33.8229 10.5906 34.2958C10.5906 34.8044 10.3139 35.1501 9.93444 35.3965C9.5352 35.6547 8.92647 35.77 8.11219 35.77C7.54693 35.77 7.10817 35.7302 6.87891 35.6826L7.709 31.2441ZM8.15567 34.8561C8.25054 34.868 8.35331 34.868 8.49166 34.868C8.95809 34.868 9.36919 34.6852 9.36919 34.272C9.36919 33.8627 9.01738 33.7713 8.59443 33.7713H8.35726L8.15567 34.8561ZM8.53119 32.9289H8.81579C9.29408 32.9289 9.59845 32.7541 9.59845 32.4282C9.59845 32.1501 9.36128 32.0269 9.04505 32.0269C8.89089 32.0269 8.76836 32.0349 8.70116 32.0547L8.53119 32.9289Z" fill="white"/>
</g>
<mask id="mask7_132_1429" style="mask-type:luminance" maskUnits="userSpaceOnUse" x="0" y="0" width="183" height="63">
<path d="M183 0H0V63H183V0Z" fill="white"/>
</mask>
<g mask="url(#mask7_132_1429)">
<path d="M12.9808 34.6647L12.5302 35.7376H11.2969L13.4551 31.1641H14.9611L15.4473 35.7376H14.2299L14.1745 34.6647H12.9808ZM14.135 33.7906L14.0876 32.9482C14.0678 32.6899 14.0559 32.3084 14.0283 32.0263H14.0164C13.9018 32.3124 13.7753 32.6978 13.6607 32.9561L13.3089 33.7906H14.135Z" fill="white"/>
</g>
<mask id="mask8_132_1429" style="mask-type:luminance" maskUnits="userSpaceOnUse" x="0" y="0" width="183" height="63">
<path d="M183 0H0V63H183V0Z" fill="white"/>
</mask>
<g mask="url(#mask8_132_1429)">
<path d="M17.4082 31.2441C17.7521 31.1766 18.2185 31.1289 18.6968 31.1289C19.1751 31.1289 19.5269 31.1766 19.859 31.3395C20.2029 31.4905 20.4717 31.8004 20.4717 32.2296C20.4717 32.8137 20.0685 33.1475 19.5862 33.2945V33.3064C20.0329 33.4574 20.2898 33.8229 20.2898 34.2958C20.2898 34.8044 20.0131 35.1501 19.6337 35.3965C19.2344 35.6547 18.6296 35.77 17.8114 35.77C17.2462 35.77 16.8074 35.7302 16.5781 35.6826L17.4082 31.2441ZM17.8549 34.8561C17.9498 34.868 18.0486 34.868 18.1909 34.868C18.6573 34.868 19.0684 34.6852 19.0684 34.272C19.0684 33.8627 18.7166 33.7713 18.2937 33.7713H18.0565L17.8549 34.8561ZM18.2344 32.9289H18.519C18.9973 32.9289 19.3016 32.7541 19.3016 32.4282C19.3016 32.1501 19.0645 32.0269 18.7482 32.0269C18.5941 32.0269 18.4715 32.0349 18.4043 32.0547L18.2344 32.9289Z" fill="white"/>
</g>
<mask id="mask9_132_1429" style="mask-type:luminance" maskUnits="userSpaceOnUse" x="0" y="0" width="183" height="63">
<path d="M183 0H0V63H183V0Z" fill="white"/>
</mask>
<g mask="url(#mask9_132_1429)">
<path d="M22.0689 35.7375L22.4207 33.8938L21.5234 31.168H22.7567L22.9781 32.1931C23.0532 32.5666 23.1006 32.7892 23.148 33.0474H23.1599C23.3101 32.7772 23.4366 32.5269 23.6105 32.1931L24.1718 31.168H25.5474L23.571 33.862L23.2192 35.7415H22.0689V35.7375Z" fill="white"/>
</g>
<mask id="mask10_132_1429" style="mask-type:luminance" maskUnits="userSpaceOnUse" x="0" y="0" width="183" height="63">
<path d="M183 0H0V63H183V0Z" fill="white"/>
</mask>
<g mask="url(#mask10_132_1429)">
<path d="M26.5727 31.1641H27.719L27.051 34.7243H28.7665L28.5768 35.7376H25.707L26.5727 31.1641Z" fill="white"/>
</g>
<mask id="mask11_132_1429" style="mask-type:luminance" maskUnits="userSpaceOnUse" x="0" y="0" width="183" height="63">
<path d="M183 0H0V63H183V0Z" fill="white"/>
</mask>
<g mask="url(#mask11_132_1429)">
<path d="M31.6552 35.8104C30.4733 35.8104 29.7578 34.9879 29.7578 33.8832C29.7578 33.0488 30.0622 32.262 30.5879 31.7534C31.0267 31.3322 31.6196 31.0898 32.3074 31.0898C33.5011 31.0898 34.1968 31.8687 34.1968 33.017C34.1968 33.8594 33.9043 34.6461 33.3944 35.1468C32.9557 35.568 32.3627 35.8104 31.6591 35.8104H31.6552ZM31.8291 34.8488C32.0663 34.8488 32.2955 34.7415 32.4615 34.5706C32.7936 34.2369 32.9675 33.5256 32.9675 33.0448C32.9675 32.5084 32.7659 32.0554 32.173 32.0554C31.9081 32.0554 31.6789 32.1627 31.4971 32.3455C31.1729 32.6792 30.9832 33.3428 30.9832 33.8594C30.9832 34.4554 31.252 34.8488 31.8212 34.8488H31.8291Z" fill="white"/>
</g>
<mask id="mask12_132_1429" style="mask-type:luminance" maskUnits="userSpaceOnUse" x="0" y="0" width="183" height="63">
<path d="M183 0H0V63H183V0Z" fill="white"/>
</mask>
<g mask="url(#mask12_132_1429)">
<path d="M35.0703 35.7376L35.9281 31.1641H37.2997L37.7108 32.5468C37.8847 33.1508 38.0231 33.6793 38.1298 34.2276H38.1496C38.1693 33.7309 38.2444 33.1826 38.367 32.4992L38.616 31.1641H39.6912L38.8334 35.7376H37.6238L37.1653 34.2435C36.9756 33.5998 36.8412 33.1429 36.7147 32.5349H36.6949C36.6396 32.9919 36.521 33.7151 36.3787 34.474L36.1415 35.7376H35.0703Z" fill="white"/>
</g>
<mask id="mask13_132_1429" style="mask-type:luminance" maskUnits="userSpaceOnUse" x="0" y="0" width="183" height="63">
<path d="M183 0H0V63H183V0Z" fill="white"/>
</mask>
<g mask="url(#mask13_132_1429)">
<path d="M90.2665 10.8487C87.3651 13.7692 83.5032 20.0513 81.7205 26.4328C80.0129 27.299 78.0404 28.1533 76.0245 28.7295C76.0482 26.9573 75.5462 25.5308 74.3406 24.752C71.1586 22.7017 66.4942 25.6818 62.3833 30.7003C61.5295 31.4752 60.4385 31.9361 58.2644 31.9361C58.2486 31.9361 58.2289 31.9361 58.2131 31.9401C55.7584 32.0513 54.6753 31.4871 54.28 30.744C54.0942 30.3904 54.0863 29.9692 54.2128 29.5878C54.3946 29.0394 54.5844 28.4752 54.7662 27.907C54.7701 27.907 54.7701 27.907 54.7701 27.903C57.7703 18.8394 61.2646 8.2063 59.0906 7.91623C55.9046 7.49106 52.098 20.7546 50.2679 27.9785C50.2639 27.9904 50.26 27.9984 50.26 28.0063C49.4378 30.8354 47.5286 30.7798 47.5286 30.7798C47.5286 30.7798 46.9515 30.7758 46.1451 30.7758L45.4099 34.5745H47.4297C48.4021 34.5745 48.4575 35.3136 48.3863 35.8063C48.3587 36.0089 48.3073 36.1679 48.2915 36.2195C48.2915 36.2235 48.2875 36.2275 48.2875 36.2315L48.2836 36.2354C47.41 39.9387 46.1925 45.3666 45.3861 49.8129C44.224 56.258 47.2203 55.344 47.8843 53.0791C48.7974 49.9679 49.758 45.7083 51.5091 38.3851C51.6118 37.948 51.7423 37.4513 51.9004 36.907C51.9004 36.899 51.9004 36.895 51.9043 36.8871C52.8807 33.9229 55.2998 33.9904 55.2998 33.9904H60.1341C57.8138 38.254 57.8415 42.3507 60.565 43.9758C63.8182 45.9189 68.7513 44.9772 72.2337 39.3467C74.135 36.2672 75.566 32.8262 75.9375 29.9891C77.8863 29.4685 82.9498 27.8831 87.1319 24.5772C87.1438 24.5692 87.1517 24.5613 87.1636 24.5533C89.7764 22.658 93.3458 19.3361 94.6463 14.6513C96.6978 7.24868 93.4723 7.62616 90.2665 10.8487ZM70.9214 37.1652C70.4471 37.7811 69.9727 38.3334 69.5023 38.8222C67.269 41.1427 65.0791 42.0129 62.7944 40.9917C60.2409 39.8474 61.8338 35.5639 64.5692 32.0354C64.9961 31.4871 65.4428 30.9785 65.9013 30.5255C68.3916 28.05 71.2139 27.0169 72.6962 28.2129C74.4473 29.6275 73.6528 33.6368 70.9214 37.1652ZM86.6971 23.4805C87.4798 20.5639 90.2665 11.0513 93.4723 10.5546C94.8439 10.344 92.6343 19.3401 86.6971 23.4805Z" fill="#1E1E1E"/>
</g>
<mask id="mask14_132_1429" style="mask-type:luminance" maskUnits="userSpaceOnUse" x="0" y="0" width="183" height="63">
<path d="M183 0H0V63H183V0Z" fill="white"/>
</mask>
<g mask="url(#mask14_132_1429)">
<path d="M45.3851 7.33216C43.0885 5.71494 40.61 13.3798 37.2383 25.0183H42.1121C44.8277 16.4712 47.0215 8.48448 45.3851 7.33216Z" fill="#1E1E1E"/>
</g>
<mask id="mask15_132_1429" style="mask-type:luminance" maskUnits="userSpaceOnUse" x="0" y="0" width="183" height="63">
<path d="M183 0H0V63H183V0Z" fill="white"/>
</mask>
<g mask="url(#mask15_132_1429)">
<path d="M29.6512 58.0171C29.6512 58.0171 32.2719 58.0171 36.3512 43.0768C36.4619 42.6675 36.5884 42.2304 36.7228 41.7734H32.4458C29.2203 53.6383 28.9001 57.7668 29.6512 58.0171Z" fill="#1E1E1E"/>
</g>
</g>
</g>
<defs>
<clipPath id="clip0_132_1429">
<rect width="183" height="63" fill="white"/>
</clipPath>
</defs>
</svg>
