<svg width="478" height="444" viewBox="0 0 478 444" fill="none" xmlns="http://www.w3.org/2000/svg">
<g opacity="0.1" clip-path="url(#clip0_132_1529)">
<rect x="21" y="262.797" width="87.3499" height="84.5621" rx="7.43403" fill="white" fill-opacity="0.3"/>
<rect x="221.719" y="262.797" width="87.3499" height="84.5621" rx="7.43403" fill="white" fill-opacity="0.3"/>
<rect x="422.438" y="262.797" width="87.3499" height="84.5621" rx="7.43403" fill="white" fill-opacity="0.3"/>
<rect x="121.359" y="156.859" width="87.3499" height="84.5621" rx="7.43403" fill="white" fill-opacity="0.3"/>
<rect x="221.719" y="156.859" width="87.3499" height="84.5621" rx="7.43403" fill="white" fill-opacity="0.3"/>
<rect x="321.727" y="54.3438" width="87.3499" height="84.5621" rx="7.43403" fill="white" fill-opacity="0.3"/>
<rect x="322.078" y="156.859" width="87.3499" height="84.5621" rx="7.43403" fill="white" fill-opacity="0.3"/>
<rect x="422.438" y="156.859" width="87.3499" height="84.5621" rx="7.43403" fill="white" fill-opacity="0.3"/>
<rect x="21" y="156.859" width="87.3499" height="84.5621" rx="7.43403" fill="white" fill-opacity="0.3"/>
<rect x="121.359" y="54.6406" width="87.3499" height="84.5621" rx="7.43403" fill="white" fill-opacity="0.3"/>
<rect x="221.719" y="54.6406" width="87.3499" height="84.5621" rx="7.43403" fill="white" fill-opacity="0.3"/>
<rect x="422.438" y="54.6406" width="87.3499" height="84.5621" rx="7.43403" fill="white" fill-opacity="0.3"/>
<rect x="221.719" y="-42" width="87.3499" height="84.5621" rx="7.43403" fill="white" fill-opacity="0.3"/>
</g>
<defs>
<clipPath id="clip0_132_1529">
<rect width="478" height="444" fill="white"/>
</clipPath>
</defs>
</svg>
